# File created by Blade
# Date/Time:  Tue Jan 27 18:09:10 2015
# Frame Rate: 120.000 fps
#------------------------------------------------------
:FULLY-SPECIFIED
:DEGREES
2952
root -1.574724 31.933895 -6.661940 5.299886 5.029459 2.814913
Spine -5.282947 -20.855111 -2.079173
Head 20.606532 15.663344 -1.116834
LeftShoulder -15.236135 18.413918 3.443745
LeftArm 24.088715 36.625615 -71.419293
LeftForeArm -1.714214 -0.000000 17.810676
LeftHand -11.434960 0.000000 -2.676735
LeftHandThumb1 -26.253704 0.000000 33.147579
RightShoulder -16.489124 3.247049 -34.148674
RightArm -10.954404 84.170881 27.485789
RightForeArm 43.032472 -0.000000 148.951963
RightHand 3.002638 0.000000 10.349921
RightHandThumb1 -24.326973 -0.000000 -32.862282
LeftUpLeg -0.810952 1.698656 -0.551937
LeftLeg 0.455438 -0.000000 -0.000000
LeftFoot -17.037438 16.326496 -24.952199
LeftToeBase 8.613577 -0.000000 -0.000000
RightUpLeg 0.867653 -1.852695 -3.225042
RightLeg -2.719899 -0.000000 0.000000
RightFoot -14.539925 -14.011053 10.012113
RightToeBase 4.988263 -0.000000 -0.000000
2953
root -1.574541 31.933359 -6.663037 5.293574 5.027445 2.811851
Spine -5.280193 -20.777080 -2.098263
Head 20.870629 15.969701 -0.999223
LeftShoulder -15.241272 18.416569 3.443202
LeftArm 24.041030 36.580510 -71.421483
LeftForeArm -1.686381 0.000000 17.796238
LeftHand -11.522727 0.000000 -2.721060
LeftHandThumb1 -26.253704 0.000000 33.147579
RightShoulder -16.511160 3.225072 -34.109397
RightArm -10.562060 84.184530 27.889700
RightForeArm 42.976408 0.000000 149.172261
RightHand 2.999398 -0.000000 10.373474
RightHandThumb1 -24.326973 -0.000000 -32.862282
LeftUpLeg -0.804939 1.669706 -0.550210
LeftLeg 0.454360 -0.000000 -0.000000
LeftFoot -17.048245 16.366882 -24.924243
LeftToeBase 8.614105 -0.000000 -0.000000
RightUpLeg 0.874502 -1.867329 -3.223049
RightLeg -2.733777 -0.000000 0.000000
RightFoot -14.513438 -13.958957 10.106398
RightToeBase 4.900847 -0.000000 -0.000000
2954
root -1.575453 31.932568 -6.663750 5.287759 5.031958 2.805749
Spine -5.268918 -20.725894 -2.117291
Head 21.094412 16.242628 -0.885961
LeftShoulder -15.285072 18.431512 3.431210
LeftArm 24.025458 36.530646 -71.402837
LeftForeArm -1.678839 -0.000000 17.766243
LeftHand -11.424008 -0.000000 -2.734813
LeftHandThumb1 -26.253704 0.000000 33.147579
RightShoulder -16.539890 3.251143 -34.063554
RightArm -10.040809 84.158443 28.430849
RightForeArm 42.840072 0.000000 149.351731
RightHand 3.064873 -0.000000 10.584255
RightHandThumb1 -24.326973 -0.000000 -32.862282
LeftUpLeg -0.804089 1.656039 -0.540230
LeftLeg 0.458664 -0.000000 -0.000000
LeftFoot -17.065498 16.351154 -24.961944
LeftToeBase 8.597168 -0.000000 -0.000000
RightUpLeg 0.882711 -1.867636 -3.214563
RightLeg -2.741023 -0.000000 0.000000
RightFoot -14.525092 -14.009485 10.015396
RightToeBase 4.963737 -0.000000 -0.000000
2955
root -1.576116 31.931722 -6.664866 5.284157 5.030821 2.796997
Spine -5.262245 -20.683247 -2.126332
Head 21.316779 16.553207 -0.746412
LeftShoulder -15.342020 18.446593 3.405007
LeftArm 24.008618 36.488484 -71.380498
LeftForeArm -1.654545 -0.000000 17.762091
LeftHand -11.428078 -0.000000 -2.738370
LeftHandThumb1 -26.253704 0.000000 33.147579
RightShoulder -16.543620 3.298150 -34.038347
RightArm -10.174825 84.143818 28.340022
RightForeArm 42.634681 0.000000 149.480797
RightHand 3.189999 -0.000000 10.813305
RightHandThumb1 -24.326973 -0.000000 -32.862282
LeftUpLeg -0.803039 1.650284 -0.532481
LeftLeg 0.459225 -0.000000 -0.000000
LeftFoot -17.081385 16.359876 -24.963279
LeftToeBase 8.621786 -0.000000 -0.000000
RightUpLeg 0.889899 -1.851827 -3.209984
RightLeg -2.748679 -0.000000 0.000000
RightFoot -14.529777 -13.990527 10.020277
RightToeBase 4.976567 -0.000000 -0.000000
2956
root -1.576758 31.931201 -6.666526 5.282996 5.035490 2.792482
Spine -5.249175 -20.650210 -2.149323
Head 21.492044 16.757365 -0.630579
LeftShoulder -15.396752 18.455209 3.388121
LeftArm 23.975234 36.464227 -71.364305
LeftForeArm -1.575907 -0.000000 17.769321
LeftHand -11.450214 -0.000000 -2.689149
LeftHandThumb1 -26.253704 0.000000 33.147579
RightShoulder -16.547624 3.344116 -34.016699
RightArm -10.430711 84.087418 28.150034
RightForeArm 42.436489 0.000000 149.590062
RightHand 3.215536 -0.000000 10.883692
RightHandThumb1 -24.326973 -0.000000 -32.862282
LeftUpLeg -0.802321 1.613073 -0.525745
LeftLeg 0.456127 -0.000000 -0.000000
LeftFoot -17.088072 16.394657 -24.946509
LeftToeBase 8.610548 -0.000000 -0.000000
RightUpLeg 0.886214 -1.858304 -3.202755
RightLeg -2.747997 -0.000000 0.000000
RightFoot -14.529795 -13.989897 10.019757
RightToeBase 4.994974 -0.000000 -0.000000
2957
root -1.577665 31.931015 -6.667456 5.279825 5.036160 2.784894
Spine -5.246314 -20.591437 -2.168109
Head 21.694266 16.902478 -0.496907
LeftShoulder -15.402619 18.507090 3.369237
LeftArm 23.951698 36.381884 -71.348632
LeftForeArm -1.506740 -0.000000 17.797581
LeftHand -11.465322 -0.000000 -2.715922
LeftHandThumb1 -26.253704 0.000000 33.147579
RightShoulder -16.542246 3.379551 -33.997889
RightArm -10.834706 84.009510 27.816183
RightForeArm 42.265000 -0.000000 149.679630
RightHand 3.118862 -0.000000 10.839123
RightHandThumb1 -24.326973 -0.000000 -32.862282
LeftUpLeg -0.804070 1.603936 -0.517142
LeftLeg 0.458634 -0.000000 -0.000000
LeftFoot -17.096084 16.396256 -24.943277
LeftToeBase 8.605295 -0.000000 -0.000000
RightUpLeg 0.895908 -1.832075 -3.193492
RightLeg -2.769349 -0.000000 0.000000
RightFoot -14.517649 -14.031423 10.030372
RightToeBase 4.983023 -0.000000 -0.000000
2958
root -1.578665 31.930386 -6.668321 5.268912 5.031693 2.780438
Spine -5.225180 -20.556440 -2.200263
Head 21.861821 17.067128 -0.393200
LeftShoulder -15.416430 18.536107 3.365309
LeftArm 23.900814 36.320378 -71.346982
LeftForeArm -1.518724 0.000000 17.823909
LeftHand -11.492260 0.000000 -2.775748
LeftHandThumb1 -26.253704 0.000000 33.147579
RightShoulder -16.518785 3.416209 -33.964861
RightArm -11.048067 83.911645 27.660151
RightForeArm 42.068497 -0.000000 149.701835
RightHand 3.056398 -0.000000 10.763711
RightHandThumb1 -24.326973 -0.000000 -32.862282
LeftUpLeg -0.789903 1.583010 -0.509879
LeftLeg 0.449174 -0.000000 -0.000000
LeftFoot -17.100867 16.421862 -24.922394
LeftToeBase 8.622149 -0.000000 -0.000000
RightUpLeg 0.901488 -1.827791 -3.188510
RightLeg -2.764739 -0.000000 0.000000
RightFoot -14.527440 -14.022388 10.050951
RightToeBase 4.965640 -0.000000 -0.000000
2959
root -1.578724 31.930076 -6.670260 5.267491 5.036031 2.780990
Spine -5.209858 -20.527132 -2.225897
Head 21.995415 17.220589 -0.286268
LeftShoulder -15.421011 18.558399 3.351786
LeftArm 23.851176 36.269932 -71.328864
LeftForeArm -1.571941 -0.000000 17.858276
LeftHand -11.579633 -0.000000 -2.859098
LeftHandThumb1 -26.253704 0.000000 33.147579
RightShoulder -16.505123 3.478157 -33.936887
RightArm -11.007780 83.805934 27.756326
RightForeArm 41.942069 -0.000000 149.631021
RightHand 3.071706 -0.000000 10.813706
RightHandThumb1 -24.326973 -0.000000 -32.862282
LeftUpLeg -0.795910 1.570955 -0.510643
LeftLeg 0.457522 -0.000000 -0.000000
LeftFoot -17.119418 16.409242 -24.966806
LeftToeBase 8.613750 -0.000000 -0.000000
RightUpLeg 0.887525 -1.868915 -3.188336
RightLeg -2.736616 -0.000000 0.000000
RightFoot -14.537752 -13.988577 10.031045
RightToeBase 4.975894 -0.000000 -0.000000
2960
root -1.580462 31.930060 -6.671970 5.263738 5.036427 2.776706
Spine -5.185688 -20.516374 -2.273218
Head 22.105126 17.289978 -0.187032
LeftShoulder -15.448875 18.602057 3.357982
LeftArm 23.832750 36.224188 -71.318104
LeftForeArm -1.545108 -0.000000 17.845482
LeftHand -11.534323 -0.000000 -2.898766
LeftHandThumb1 -26.253704 0.000000 33.147579
RightShoulder -16.455744 3.483394 -33.880099
RightArm -11.383978 83.720895 27.428839
RightForeArm 41.696609 -0.000000 149.551515
RightHand 2.903469 -0.000000 10.579912
RightHandThumb1 -24.326973 -0.000000 -32.862282
LeftUpLeg -0.796472 1.545010 -0.503118
LeftLeg 0.458595 -0.000000 -0.000000
LeftFoot -17.127030 16.447165 -24.966585
LeftToeBase 8.623952 -0.000000 -0.000000
RightUpLeg 0.892116 -1.846655 -3.180940
RightLeg -2.744926 -0.000000 0.000000
RightFoot -14.535030 -14.014112 10.032561
RightToeBase 4.961899 -0.000000 -0.000000
2961
root -1.581449 31.929926 -6.673969 5.260871 5.033796 2.772276
Spine -5.160954 -20.503135 -2.303087
Head 22.174846 17.364873 -0.098218
LeftShoulder -15.463498 18.624694 3.355969
LeftArm 23.818668 36.264090 -71.271749
LeftForeArm -1.458764 -0.000000 17.832166
LeftHand -11.484448 0.000000 -2.875477
LeftHandThumb1 -26.253704 0.000000 33.147579
RightShoulder -16.420163 3.514253 -33.847653
RightArm -11.270258 83.624533 27.599637
RightForeArm 41.535905 -0.000000 149.383469
RightHand 2.842222 -0.000000 10.379243
RightHandThumb1 -24.326973 -0.000000 -32.862282
LeftUpLeg -0.799286 1.537324 -0.496993
LeftLeg 0.463253 -0.000000 -0.000000
LeftFoot -17.125021 16.452985 -24.954839
LeftToeBase 8.593798 -0.000000 -0.000000
RightUpLeg 0.897349 -1.833707 -3.177809
RightLeg -2.759250 -0.000000 0.000000
RightFoot -14.532049 -14.016310 10.057366
RightToeBase 5.119171 -0.000000 -0.000000
2962
root -1.581696 31.929690 -6.676294 5.262210 5.040607 2.769456
Spine -5.133827 -20.495735 -2.322080
Head 22.213978 17.459030 0.007877
LeftShoulder -15.476761 18.641897 3.345284
LeftArm 23.809216 36.292856 -71.220618
LeftForeArm -1.468250 -0.000000 17.822791
LeftHand -11.486603 -0.000000 -2.866002
LeftHandThumb1 -26.253704 0.000000 33.147579
RightShoulder -16.403504 3.521628 -33.835680
RightArm -11.180144 83.539210 27.756205
RightForeArm 41.377720 -0.000000 149.132553
RightHand 2.717943 -0.000000 10.218979
RightHandThumb1 -24.326973 -0.000000 -32.862282
LeftUpLeg -0.810790 1.528058 -0.494541
LeftLeg 0.475294 -0.000000 -0.000000
LeftFoot -17.137829 16.457347 -24.950008
LeftToeBase 8.627226 -0.000000 -0.000000
RightUpLeg 0.891072 -1.845254 -3.171015
RightLeg -2.752496 -0.000000 0.000000
RightFoot -14.533953 -14.028523 10.031641
RightToeBase 4.998134 -0.000000 -0.000000
2963
root -1.582600 31.929682 -6.677827 5.266154 5.049622 2.764312
Spine -5.118984 -20.486095 -2.348358
Head 22.262858 17.498921 0.088760
LeftShoulder -15.484767 18.687725 3.347229
LeftArm 23.837438 36.331422 -71.163673
LeftForeArm -1.480926 -0.000000 17.786455
LeftHand -11.488460 -0.000000 -2.825092
LeftHandThumb1 -26.253704 0.000000 33.147579
RightShoulder -16.359378 3.584470 -33.826905
RightArm -11.682465 83.315424 27.306777
RightForeArm 41.290384 -0.000000 148.763038
RightHand 2.823028 -0.000000 10.147064
RightHandThumb1 -24.326973 -0.000000 -32.862282
LeftUpLeg -0.825732 1.526531 -0.486453
LeftLeg 0.488651 -0.000000 -0.000000
LeftFoot -17.137402 16.434795 -24.965229
LeftToeBase 8.632911 -0.000000 -0.000000
RightUpLeg 0.882483 -1.858798 -3.164577
RightLeg -2.747905 -0.000000 0.000000
RightFoot -14.529663 -14.006450 10.034386
RightToeBase 4.988355 -0.000000 -0.000000
2964
root -1.582679 31.930430 -6.680821 5.274698 5.059097 2.759763
Spine -5.097492 -20.474719 -2.380107
Head 22.275292 17.455865 0.140570
LeftShoulder -15.480802 18.717874 3.364964
LeftArm 23.833296 36.336523 -71.147359
LeftForeArm -1.482116 -0.000000 17.738998
LeftHand -11.398410 -0.000000 -2.842331
LeftHandThumb1 -26.253704 0.000000 33.147579
RightShoulder -16.339903 3.572198 -33.784960
RightArm -11.871700 83.306166 27.150400
RightForeArm 41.032371 0.000000 148.315614
RightHand 2.645246 -0.000000 10.089927
RightHandThumb1 -24.326973 -0.000000 -32.862282
LeftUpLeg -0.842924 1.510479 -0.482349
LeftLeg 0.493877 -0.000000 -0.000000
LeftFoot -17.130857 16.461208 -24.927939
LeftToeBase 8.615816 -0.000000 -0.000000
RightUpLeg 0.859090 -1.901475 -3.156128
RightLeg -2.730043 -0.000000 0.000000
RightFoot -14.519152 -14.005743 10.013409
RightToeBase 4.975172 -0.000000 -0.000000
